<svg xmlns="http://www.w3.org/2000/svg" viewBox="0 0 250 250">
  <g transform="translate(125 125) scale(1.28) translate(-125 -125)">
    <path
      d="m124.1 51.51c-3.82 8.72-8.65 15.1-16.94 18.54 8.69 3.13 14.32 9.4 16.61 18.56 3.09-9.46 8.97-15.5 16.71-18.61-8.43-3.49-12.52-9.27-16.38-18.49z"
      fill="#ffffff"
    />
    <path
      d="m155.3 71.31c-6.42 12.38-18.77 21.05-31.56 21.4-13.65 0.4-25.91-6.93-31.55-21 0.24 4.2 0.44 7.99 1.74 11.53 7 14.31 18.41 20.94 39 19.24-3.83 9.6-10.05 14.99-20.72 14.25-8.29-1.09-14-3.37-25.08-3.09-2.44 0-6.98 0.07-9.32 1.47-0.53 2.17-0.58 12.12-0.05 13.29 6.46-2.89 11.29-3.54 18.29-3.17 5.69 0.3 16 1.95 16 10.52 0 5.63-4.2 9.9-13.37 9.5-2.3-0.1-4.19-0.5-5.15 0.35-0.75 2.27-0.35 6.34 0.23 7.34 4.92 0 9.02-0.53 13.94 0.2 9.08 1.42 14 7.77 13.9 15.92-0.38 11.27-10.61 17.82-22.82 17.92-19.09 0-35.15-15.67-36.01-35.71-0.09-1.7 0.04-3.34 0.14-5.12-1.54 3.77-2.02 9.09-1.63 12.96 2.63 18.8 17.87 37.8 41.97 37.9 15.86 0 30.15-11.85 30.15-27 0-12.87-8.48-20.72-23.92-21.09 3.9-2.07 6.85-6.79 7.48-9.31 20.42 0 26.26-9.6 41.04-13 12.45-2.2 19.35 10.18 19.35 23.05 0 15.55-9.46 30.13-23.47 30.13-4.92 0-9.85-0.8-14.58-3.15 3.82 6.08 9.14 8 17.02 7.55 17.61-1 30.56-16.47 30.56-35.9 0-16.36-10.98-32.48-29.02-32.28-15.91-0.2-24.7 9.4-38.28 18.12-1.2 0.62-0.93 0.55-1.32 0.62 0.66-4.69-1.07-9.94-3.17-12.14 12.16-1.7 19.02-10.7 20.71-20.3 11.6-2.75 21.82-10.4 29.11-18-4.63-4.09-7.72-8.03-9.61-13z"
      fill="#ffffff"
      stroke="#ffffff"
      stroke-miterlimit="10"
      stroke-width=".5"
    />
  </g>
</svg>
